{"title":"Creature (2011) DVDSCR XviD-HORRORSPOKE","uid":6665141,"size":736619895,"categoryP":"video","categoryS":"movies","magnet":"?xt=urn:btih:c18dccdf0b659682c196eafdb26f59faff36de4b&amp;dn=Creature+%282011%29+DVDSCR+XviD-HORRORSPOKE&amp;tr=udp%3A%2F%2Ftracker.openbittorrent.com%3A80&amp;tr=udp%3A%2F%2Fopen.demonii.com%3A1337&amp;tr=udp%3A%2F%2Ftracker.coppersurfer.tk%3A6969&amp;tr=udp%3A%2F%2Fexodus.desync.com%3A6969","seeders":0,"leechers":0,"uploader":"Horrorspoke","files":-1,"time":1315653590,"description":"PLOT:\n\nIn the back country of Louisiana, a group of friends unearth a terrible secret\nthat unleashes a monster from the depths of the swamp.\n\nTECH SPECS:\n\nGeneral\nFormat                           : AVI\nFormat/Info                      : Audio Video Interleave\nFile size                        : 702 MiB\nDuration                         : 1h 33mn\nOverall bit rate                 : 1 056 Kbps\nWriting application              : VirtualDubMod 1.5.10.2 (build 2542/release)\nWriting library                  : VirtualDubMod build 2542/release\n\nVideo\nID                               : 0\nFormat                           : MPEG-4 Visual\nFormat profile                   : Advanced Simple@L5\nFormat settings, BVOP            : 1\nFormat settings, QPel            : No\nFormat settings, GMC             : No warppoints\nFormat settings, Matrix          : Default (H.263)\nMuxing mode                      : Packed bitstream\nCodec ID                         : XVID\nCodec ID/Hint                    : XviD\nDuration                         : 1h 33mn\nBit rate                         : 856 Kbps\nWidth                            : 720 pixels\nHeight                           : 400 pixels\nDisplay aspect ratio             : 16:9\nFrame rate                       : 23.976 fps\nColor space                      : YUV\nChroma subsampling               : 4:2:0\nBit depth                        : 8 bits\nScan type                        : Progressive\nCompression mode                 : Lossy\nBits/(Pixel*Frame)               : 0.124\nStream size                      : 570 MiB (81%)\nWriting library                  : XviD 62\n\nAudio\nID                               : 1\nFormat                           : AC-3\nFormat/Info                      : Audio Coding 3\nMode extension                   : CM (complete main)\nCodec ID                         : 2000\nDuration                         : 1h 33mn\nBit rate mode                    : Constant\nBit rate                         : 192 Kbps\nChannel(s)                       : 2 channels\nChannel positions                : Front: L R\nSampling rate                    : 48.0 KHz\nBit depth                        : 16 bits\nCompression mode                 : Lossy\nStream size                      : 128 MiB (18%)\nAlignment                        : Split accross interleaves\nInterleave, duration             : 64 ms (1.53 video frames)\nInterleave, preload duration     : 500 ms\n\nSCREENS:\n &lt;a href=&quot;\nhttp://imghunt.org/images/83659543534278939883.png&quot; rel=&quot;nofollow&quot; target=&quot;_NEW&quot;&gt;\nhttp://imghunt.org/images/83659543534278939883.png&lt;/a&gt; &lt;a href=&quot;\nhttp://imghunt.org/images/55855248774392618584.png&quot; rel=&quot;nofollow&quot; target=&quot;_NEW&quot;&gt;\nhttp://imghunt.org/images/55855248774392618584.png&lt;/a&gt; &lt;a href=&quot;\nhttp://imghunt.org/images/90944310296260406027.png&quot; rel=&quot;nofollow&quot; target=&quot;_NEW&quot;&gt;\nhttp://imghunt.org/images/90944310296260406027.png&lt;/a&gt;\n\nSEED AND ENJOY!!!","torrent":{"xt":"urn:btih:c18dccdf0b659682c196eafdb26f59faff36de4b","amp;dn":"Creature+%282011%29+DVDSCR+XviD-HORRORSPOKE","amp;tr":["udp%3A%2F%2Ftracker.openbittorrent.com%3A80","udp%3A%2F%2Fopen.demonii.com%3A1337","udp%3A%2F%2Ftracker.coppersurfer.tk%3A6969","udp%3A%2F%2Fexodus.desync.com%3A6969"],"infoHash":"c18dccdf0b659682c196eafdb26f59faff36de4b","infoHashBuffer":{"type":"Buffer","data":[193,141,204,223,11,101,150,130,193,150,234,253,178,111,89,250,255,54,222,75]},"announce":[],"urlList":[]}}